<svg xmlns="http://www.w3.org/2000/svg" width="96" height="96" viewBox="0 0 48 48"><linearGradient id="a" x1="24.116" x2="23.919" y1="30.267" y2="10.709" gradientUnits="userSpaceOnUse"><stop offset="0" stop-color="#e52030"/><stop offset=".557" stop-color="#ee3d4a"/><stop offset="1" stop-color="#f44f5a"/></linearGradient><path fill="url(#a)" d="m21 26v13c-2.988-4.662-5.977-6.986-10.532-6.271-3.351.957-2.218 3.644 7.372 7.564-12.829-1.772-20.398-8.474-16.563-13.293 1.287 3.766 12.755 3.952 14.84 1.755 1.745-2.303-3.878-6.606-12.117-8.755 4.266-2.396 8.67-4.457 16.665-4.553-8.138 1.867-12.399 6.606.335 10.553zm26.569-2.223c-2.872 7.181-18.527 3.686-18.862 1.005-.192-2.25 6.606-6.176 11.92-7.995-3.733-3.111-9.48-4.655-15.627-4.787 10.745 3.59 8.734 7.277-1 13v10c2.745-6.963 11.936-6.915 12.463-4.569.424 1.891-4.564 4.25-9.814 6.08 10.532-1.963 23.505-5.027 20.92-12.734zm-23.218-2.969s1.372-3.862-1.101-8.378c-2.316-4.229.814-9 .814-9s-4.548 4.691-2.442 9.718.287 8.809.287 8.809l2.442-1.149z"/></svg>