<?xml version="1.0" encoding="UTF-8"?>
<svg width="187.8mm" height="187.85mm" version="1.1" viewBox="0 0 187.8 187.85" xmlns="http://www.w3.org/2000/svg"><g transform="translate(-10.875 -54.762)"><rect x="15.844" y="59.732" width="177.86" height="177.91" ry="15.346" stroke="#fff" stroke-linecap="round" stroke-width="9.9388"/><g transform="matrix(.75288 0 0 1.076 25.769 -10.827)" fill="#fff" stroke-width="0"><g transform="translate(65.523,-28.129)"><rect transform="rotate(45)" x="134.56" y="25.885" width="18.44" height="18.44"/><path d="m87.052 145.44-9.9098 9.7359-9.9098-9.7359-9.9098 9.7359 19.82 19.472 19.82-19.472z"/><path d="m96.8 172.11-19.82 18.27-19.819-18.27-13.561 12.012 33.38 30.598 33.38-30.598z"/></g><g transform="matrix(.95866 0 0 .95865 -5.9806 -2.3291)"><rect transform="rotate(45)" x="134.56" y="25.885" width="18.44" height="18.44"/><path d="m86.739 147.18-10.196 10.017-10.196-10.017-10.196 10.017 20.392 20.034 20.392-20.034z"/><path d="m96.959 174.2-20.163 18.816-20.162-18.816-13.796 12.37 33.958 31.511 33.958-31.511z"/></g></g></g></svg>
