<svg xmlns="http://www.w3.org/2000/svg" width="187.8mm" height="709.984" version="1.1" viewBox="0 0 187.8 187.85"><g transform="translate(-10.875 -54.762)"><rect width="177.86" height="177.91" x="15.844" y="59.732" stroke="#fff" stroke-linecap="round" stroke-width="9.939" ry="15.346"/><path fill="#fff" stroke-width="0" d="m143.73 102.53c-.76023 1.7166-2.8284-3.3502-2.8066 21.229.01 10.809-6.164 10.328-9.6199 10.825-7.1423 1.028-11.957 6.306-15.552 12.068-4.4419 7.1214-3.1093 13.135-6.7977 16.185s-17.513 1.7536-27.672.63985c-17.886-1.9607-30.866-9.659-30.762-15.1.14966-7.8724 4.6751-10.398 4.5066-21.443-.15872-10.4-15.874-38.244-15.957-55.647-.10339-21.782 13.095-49.87 47.859-49.671 20.42.11683 34.666 6.7055 43.496 21.637 4.5111 7.6288 8.3516 15.517 10.645 25.772.18424.82392-2.6485 6.192.0913 9.9946 2.8219 3.9164 9.2877 9.6673 9.329 17.1-.0826 6.7304.33658 5.5371-6.7599 6.4095z" transform="translate(10.875,54.762)"/></g></svg>