<?xml version="1.0" encoding="UTF-8" standalone="no"?>
<!-- Created with Inkscape (http://www.inkscape.org/) -->

<svg
   width="187.8mm"
   height="187.85mm"
   version="1.1"
   viewBox="0 0 187.8 187.85"
   xml:space="preserve"
   id="svg1"
   sodipodi:docname="hair-bald.svg"
   inkscape:version="1.3.2 (091e20e, 2023-11-25, custom)"
   xmlns:inkscape="http://www.inkscape.org/namespaces/inkscape"
   xmlns:sodipodi="http://sodipodi.sourceforge.net/DTD/sodipodi-0.dtd"
   xmlns="http://www.w3.org/2000/svg"
   xmlns:svg="http://www.w3.org/2000/svg"><defs
     id="defs1" /><sodipodi:namedview
     id="namedview1"
     pagecolor="#ffffff"
     bordercolor="#666666"
     borderopacity="1.0"
     inkscape:showpageshadow="2"
     inkscape:pageopacity="0.0"
     inkscape:pagecheckerboard="0"
     inkscape:deskcolor="#d1d1d1"
     inkscape:document-units="mm"
     inkscape:zoom="1.1323919"
     inkscape:cx="150.12471"
     inkscape:cy="356.32542"
     inkscape:window-width="2560"
     inkscape:window-height="1351"
     inkscape:window-x="-9"
     inkscape:window-y="-9"
     inkscape:window-maximized="1"
     inkscape:current-layer="g1" /><g
     transform="translate(-10.875 -54.762)"
     id="g1"><rect
       x="15.844"
       y="59.732"
       width="177.86"
       height="177.91"
       ry="15.346"
       stroke="#fff"
       stroke-linecap="round"
       stroke-width="9.9388"
       id="rect1" /><path
       id="path2"
       style="opacity:1;fill:#ffffff;stroke:#ffffff;stroke-width:0;stroke-linecap:round;fill-opacity:1"
       d="m 143.73431,102.53223 c -0.76023,1.71664 -2.82835,-3.350248 -2.80663,21.22924 0.01,10.80923 -6.16399,10.32804 -9.61988,10.82544 -7.14226,1.02798 -11.95744,6.30598 -15.55173,12.06847 -4.44191,7.12141 -3.10927,13.13479 -6.79774,16.18549 -3.68847,3.0507 -17.512567,1.75357 -27.672317,0.63985 C 63.39977,161.52001 50.42026,153.8217 50.523706,148.38034 50.673367,140.50797 55.198836,137.982 55.030276,126.9376 54.871555,116.53787 39.156066,88.693469 39.073457,71.290481 38.970064,49.508666 52.168748,21.420138 86.932901,21.619032 c 20.419809,0.116826 34.666329,6.705499 43.496049,21.637431 4.51113,7.628778 8.35161,15.516618 10.64492,25.771824 0.18424,0.823916 -2.64854,6.19205 0.0913,9.994563 2.8219,3.91645 9.28774,9.667315 9.32905,17.099855 -0.0826,6.730375 0.33658,5.537085 -6.75991,6.409525 z"
       sodipodi:nodetypes="csssssssssssscc"
       transform="translate(10.875,54.762)"
       inkscape:label="path1" /></g></svg>
