<?xml version="1.0" encoding="UTF-8"?>
<svg width="187.8mm" height="187.85mm" version="1.1" viewBox="0 0 187.8 187.85" xmlns="http://www.w3.org/2000/svg"><g transform="translate(-10.875 -54.762)" stroke="#fff"><rect x="15.844" y="59.732" width="177.86" height="177.91" ry="15.346" stroke-linecap="round" stroke-width="9.9388"/><path d="m149.24 206.39c1.6901-4.5157 2.8345-7.6238 3.5463-9.8866s.0177-6.2911 3.811-2.5934c5.6107-4.5217 6.0626-12.937 6.398-20.823.45149-10.617.85931-21.786-2.2157-34.56-5.5004-28.036-22.605-39.274-29.119-43.292-14.32-7.8599-32.096-8.2348-38.194-8.2872-2.5816-.0222-10.644-.06897-16.53 1.4095 3.6555-2.3628 7.0511-3.0812 2.686-3.5936-5.7024.93471-9.658 3.5496-12.967 5.5424s-8.0947 4.1739-8.3839 11.169c-2.4208 1.6436-4.959 3.2616-9.2253 8.9125s-7.8773 12.593-7.8877 25.631c-.0103 13.038.97288 16.359 2.9615 26.399 1.6337 4.9029 5.784 6.2202 6.9813 11.444 1.2397 5.4087 1.9096 8.3371 2.8629 8.8189 1.6589-6.3473 1.5457-3.6707 1.0293-9.3167-1.0328-11.292-.97437-13.903-1.0615-18.144-.07831-3.8121-.4227-7.5636 2.9771-11.434s9.7873-3.2816 14.601-5.9197c1.6334 3.8054 1.0837 2.3793 3.1548 7.0521 3.151 6.124 5.2297 11.283 14.029 13.42-3.0565-6.7644-3.0935-3.6483-4.568-8.2694 6.8688 5.994 11.352 9.181 32.443 25.657 9.4437 7.7608 17.656 14.599 21.33 22.944 3.6735 8.344 4.4611 14.509 5.1934 18.186 2.054-.0813 3.2069-3.7195 6.1481-10.465z" fill="#7f3201" stroke-width="2"/></g></svg>
