<?xml version="1.0" encoding="UTF-8" standalone="no"?>
<!-- Created with Inkscape (http://www.inkscape.org/) -->

<svg
   width="187.8mm"
   height="187.85mm"
   version="1.1"
   viewBox="0 0 187.8 187.85"
   xml:space="preserve"
   id="svg1"
   sodipodi:docname="hair-blonde.svg"
   inkscape:version="1.3.2 (091e20e, 2023-11-25, custom)"
   xmlns:inkscape="http://www.inkscape.org/namespaces/inkscape"
   xmlns:sodipodi="http://sodipodi.sourceforge.net/DTD/sodipodi-0.dtd"
   xmlns="http://www.w3.org/2000/svg"
   xmlns:svg="http://www.w3.org/2000/svg"><defs
     id="defs1" /><sodipodi:namedview
     id="namedview1"
     pagecolor="#ffffff"
     bordercolor="#666666"
     borderopacity="1.0"
     inkscape:showpageshadow="2"
     inkscape:pageopacity="0.0"
     inkscape:pagecheckerboard="0"
     inkscape:deskcolor="#d1d1d1"
     inkscape:document-units="mm"
     inkscape:zoom="1.1323919"
     inkscape:cx="290.53547"
     inkscape:cy="363.39011"
     inkscape:window-width="2560"
     inkscape:window-height="1351"
     inkscape:window-x="-9"
     inkscape:window-y="-9"
     inkscape:window-maximized="1"
     inkscape:current-layer="svg1" /><g
     transform="translate(-10.875 -54.762)"
     id="g1"><rect
       x="15.844"
       y="59.732"
       width="177.86"
       height="177.91"
       ry="15.346"
       stroke="#fff"
       stroke-linecap="round"
       stroke-width="9.9388"
       id="rect1" /><path
       d="m 149.24,206.39 c 1.69013,-4.51567 2.83449,-7.62382 3.54627,-9.88658 0.71178,-2.26276 0.0177,-6.29113 3.81097,-2.59336 5.61068,-4.52171 6.06257,-12.93675 6.39795,-20.82344 0.45149,-10.61719 0.85931,-21.7855 -2.21569,-34.5598 -5.50035,-28.0363 -22.60542,-39.273781 -29.11922,-43.292377 -14.32023,-7.859857 -32.096212,-8.23478 -38.19356,-8.287206 -2.581646,-0.0222 -10.644323,-0.06897 -16.529985,1.409499 3.655533,-2.362791 7.051095,-3.081199 2.686046,-3.593601 -5.702383,0.934711 -9.658022,3.549557 -12.966799,5.542395 -3.308777,1.992838 -8.094724,4.173902 -8.383937,11.16911 -2.420806,1.64365 -4.958986,3.26162 -9.225251,8.91254 -4.266266,5.65092 -7.877349,12.59294 -7.887652,25.63131 -0.0103,13.03836 0.972881,16.35873 2.961457,26.3994 1.633742,4.90286 5.78397,6.2202 6.981306,11.44408 1.239708,5.40874 1.909579,8.33712 2.862934,8.81886 1.658885,-6.34731 1.545727,-3.67072 1.029346,-9.31667 -1.032764,-11.29189 -0.974366,-13.90329 -1.061486,-18.14425 -0.07831,-3.81213 -0.422703,-7.56364 2.977129,-11.43373 3.399832,-3.87009 9.787324,-3.28162 14.601086,-5.91966 1.633364,3.80536 1.08366,2.37929 3.154831,7.05214 3.151049,6.12398 5.229676,11.28254 14.02858,13.41959 -3.056486,-6.76445 -3.093472,-3.64826 -4.568006,-8.26937 6.868848,5.99397 11.351794,9.18105 32.443211,25.65693 9.44372,7.76077 17.65598,14.59949 21.32952,22.94355 3.67354,8.34405 4.46114,14.50898 5.19336,18.18628 2.05395,-0.0813 3.20688,-3.71947 6.14809,-10.46504 z"
       fill="#fff"
       id="path1"
       style="display:inline;opacity:1;fill:#fed883;fill-opacity:1;stroke-width:2;stroke-dasharray:none;stroke:#ffffff;stroke-opacity:1"
       sodipodi:nodetypes="czcsccscczczzcscsszccccczccc" /></g></svg>
