<svg xmlns="http://www.w3.org/2000/svg" width="187.8mm" height="709.984" version="1.1" viewBox="0 0 187.8 187.85"><g transform="translate(-10.875 -54.762)"><rect width="177.86" height="177.91" x="15.844" y="59.732" stroke="#fff" stroke-linecap="round" stroke-width="9.939" ry="15.346"/><path fill="#fff" d="m157.75 147.54c-54.848 3.6024-54.753 3.1608-102.31.16132-10.518 13.633-14.284 17.692-21.2 27.093 21.756 16.366 64.13 18.838 70.556 18.904 6.4255.066 42.473.66008 73.8-18.647-5.7177-9.7287-13.481-18.787-20.846-27.511zm-.0483-8.6559c.0458-9.9822.37765-20.212-.41215-23.463-3.6086-11.384-10.085-10.485-22.193-13.119-12.108-2.6345-44.423-2.089-58.42.1946-11.894 1.9407-19.056 3.7985-20.717 12.842-.35294 1.9207.12124 20.781-.03321 23.809 1.1943 2.6316 28.875 3.1486 47.668 3.2884 18.793.13988 52.576-.83937 54.108-3.5521z"/></g></svg>