<?xml version="1.0" encoding="UTF-8" standalone="no"?>
<!-- Created with Inkscape (http://www.inkscape.org/) -->

<svg
   width="500.00299mm"
   height="83.775002mm"
   viewBox="0 0 500.00299 83.775002"
   version="1.1"
   id="svg1"
   xml:space="preserve"
   xmlns="http://www.w3.org/2000/svg"
   xmlns:svg="http://www.w3.org/2000/svg"><defs
     id="defs1" /><g
     id="layer1"><rect
       style="fill:#ffffff;fill-opacity:1;stroke:#000000;stroke-width:7.08903;stroke-dasharray:none;stroke-opacity:1"
       id="rect1"
       width="492.91095"
       height="76.684975"
       x="-496.45547"
       y="3.5445135"
       transform="scale(-1,1)" /><path
       d="m 75.042003,23.588263 v 35.038988 h 7.379464 V 44.002985 h 14.543469 v 14.624266 h 7.352534 V 23.588263 H 96.964936 V 37.054438 H 82.421467 V 23.588263 Z"
       id="text1"
       style="font-size:53.8647px;line-height:1.25;font-family:'Overused Grotesk';-inkscape-font-specification:'Overused Grotesk, @wght=670';font-variation-settings:'wght' 670;letter-spacing:0px;word-spacing:0px;stroke-width:0.258965"
       transform="scale(0.97876577,1.0216949)"
       aria-label="H" /><path
       d="M 143.21966,23.912683 V 59.43317 h 7.48087 V 23.912683 Z"
       id="text1-2"
       style="font-size:54.6049px;line-height:1.25;font-family:'Overused Grotesk';-inkscape-font-specification:'Overused Grotesk, @wght=670';font-variation-settings:'wght' 670;letter-spacing:0px;word-spacing:0px;stroke-width:0.262523"
       transform="scale(0.99221526,1.0078458)"
       aria-label="I" /><path
       d="m 223.01758,23.412909 h -29.72621 v 6.896907 h 11.22753 v 27.881686 h 7.27116 V 30.309816 h 11.22752 z"
       id="text1-2-6"
       style="font-size:53.4644px;line-height:1.25;font-family:'Overused Grotesk';-inkscape-font-specification:'Overused Grotesk, @wght=670';font-variation-settings:'wght' 670;letter-spacing:0px;word-spacing:0px;stroke-width:0.25704"
       transform="scale(0.9714911,1.0293455)"
       aria-label="T" /><path
       d="m 292.11,56.484344 8.56283,-23.742374 v 23.742374 h 7.10973 V 22.726061 H 297.1439 l -8.2255,23.949958 -8.43308,-23.949958 h -10.43108 v 33.758283 h 7.10974 V 32.74197 l 8.51093,23.742374 z"
       id="text1-2-1"
       style="font-size:51.8959px;line-height:1.25;font-family:'Overused Grotesk';-inkscape-font-specification:'Overused Grotesk, @wght=670';font-variation-settings:'wght' 670;letter-spacing:0px;word-spacing:0px;stroke-width:0.249499"
       transform="scale(0.94299057,1.060456)"
       aria-label="M" /><path
       id="path14"
       style="font-size:53.0946px;line-height:1.25;font-family:'Overused Grotesk';-inkscape-font-specification:'Overused Grotesk, @wght=670';font-variation-settings:'wght' 670;letter-spacing:0px;word-spacing:0px;fill:#000000;fill-opacity:1;stroke-width:0.255262"
       d="m 339.85729,24.099821 -12.42146,35.799365 h 7.42745 l 2.3735,-7.42952 1.93425,-6.053895 4.55373,-14.253393 4.67258,14.253393 1.98437,6.053895 2.43551,7.42952 h 7.32514 L 347.8227,24.099821 Z m -2.62051,28.369845 h 13.14493 l -1.98437,-6.053895 h -9.22631" /><path
       d="M 432.51422,23.372028 V 46.001289 L 419.1448,23.372028 h -9.04636 v 34.71777 h 7.31181 V 34.099579 l 14.73037,23.990219 h 7.60535 v -34.71777 z"
       id="text1-2-0"
       style="font-size:53.3709px;line-height:1.25;font-family:'Overused Grotesk';-inkscape-font-specification:'Overused Grotesk, @wght=670';font-variation-settings:'wght' 670;letter-spacing:0px;word-spacing:0px;stroke-width:0.256591"
       transform="scale(0.96979318,1.0311477)"
       aria-label="N" /><path
       d="m 458.12027,27.385656 0.89764,-2.867263 v 2.867263 h 0.917 V 23.3237 h -1.43363 l -0.83305,2.783312 -0.89118,-2.783312 h -1.38197 v 4.061956 h 0.92992 v -2.867263 l 0.88472,2.867263 z m -3.1062,-4.061956 h -3.36451 v 0.897634 h 1.22698 v 3.164322 H 453.8 v -3.164322 h 1.21407 z"
       id="text1-2-15"
       style="font-size:12.9156px;line-height:1.25;font-family:'Overused Grotesk';-inkscape-font-specification:'Overused Grotesk, @wght=670';font-variation-settings:'wght' 670;letter-spacing:0px;word-spacing:0px;stroke-width:0.254914"
       transform="scale(0.9710714,1.0297904)"
       aria-label="™" /></g></svg>
