<?xml version="1.0" encoding="UTF-8"?>
<svg width="500mm" height="83.775mm" version="1.1" viewBox="0 0 500 83.775" xml:space="preserve" xmlns="http://www.w3.org/2000/svg"><rect transform="scale(-1,1)" x="-496.46" y="3.5445" width="492.91" height="76.685" fill="#fff" stroke="#000" stroke-width="7.089"/><path transform="scale(.97877 1.0217)" d="m75.042 23.588v35.039h7.3795v-14.624h14.543v14.624h7.3525v-35.039h-7.3525v13.466h-14.543v-13.466z" stroke-width=".25896" style="font-variation-settings:'wght' 670" aria-label="H"/><path transform="scale(.99222 1.0078)" d="m143.22 23.913v35.52h7.4809v-35.52z" stroke-width=".26252" style="font-variation-settings:'wght' 670" aria-label="I"/><path transform="scale(.97149 1.0293)" d="m223.02 23.413h-29.726v6.8969h11.228v27.882h7.2712v-27.882h11.228z" stroke-width=".25704" style="font-variation-settings:'wght' 670" aria-label="T"/><path transform="scale(.94299 1.0605)" d="m292.11 56.484 8.5628-23.742v23.742h7.1097v-33.758h-10.639l-8.2255 23.95-8.4331-23.95h-10.431v33.758h7.1097v-23.742l8.5109 23.742z" stroke-width=".2495" style="font-variation-settings:'wght' 670" aria-label="M"/><path d="m339.86 24.1-12.421 35.799h7.4274l2.3735-7.4295 1.9342-6.0539 4.5537-14.253 4.6726 14.253 1.9844 6.0539 2.4355 7.4295h7.3251l-12.32-35.799zm-2.6205 28.37h13.145l-1.9844-6.0539h-9.2263" stroke-width=".25526" style="font-variation-settings:'wght' 670"/><path transform="scale(.96979 1.0311)" d="m432.51 23.372v22.629l-13.369-22.629h-9.0464v34.718h7.3118v-23.99l14.73 23.99h7.6054v-34.718z" stroke-width=".25659" style="font-variation-settings:'wght' 670" aria-label="N"/><path transform="scale(.97107 1.0298)" d="m458.12 27.386.89764-2.8673v2.8673h.917v-4.062h-1.4336l-.83305 2.7833-.89118-2.7833h-1.382v4.062h.92992v-2.8673l.88472 2.8673zm-3.1062-4.062h-3.3645v.89763h1.227v3.1643h.92346v-3.1643h1.2141z" stroke-width=".25491" style="font-variation-settings:'wght' 670" aria-label="™"/></svg>
